<svg id="visual" viewBox="0 0 1519.2 92.15" width="1519.2" height="92.15" xmlns="http://www.w3.org/2000/svg" xmlns:xlink="http://www.w3.org/1999/xlink" version="1.1"><g stroke-width="1" stroke-linejoin="bevel"><path d="M757.6 0L757.6 0L741.6 -42.9Z" fill="#fb9d65" stroke="#fb9d65"></path><path d="M741.6 -42.9L676.6 0L757.6 0Z" fill="#f2886b" stroke="#f2886b"></path><path d="M757.6 0L840.5 0L741.6 -42.9Z" fill="#fca264" stroke="#fca264"></path><path d="M676.6 0L740.6 92.2L757.6 0Z" fill="#fca264" stroke="#fca264"></path><path d="M757.6 0L740.6 92.2L757.6 0Z" fill="#feae62" stroke="#feae62"></path><path d="M757.6 0L789.6 92.2L840.5 0Z" fill="#fca264" stroke="#fca264"></path><path d="M740.6 92.2L782.6 92.1L757.6 0Z" fill="#ef836d" stroke="#ef836d"></path><path d="M851.6 114.1L789.6 92.2L782.6 92.1Z" fill="#fea863" stroke="#fea863"></path><path d="M782.6 92.1L789.6 92.2L757.6 0Z" fill="#f99866" stroke="#f99866"></path><path d="M888.6 92.2L920.5 0L840.5 0Z" fill="#f2886b" stroke="#f2886b"></path><path d="M840.5 0L920.5 0L741.6 -42.9Z" fill="#fea863" stroke="#fea863"></path><path d="M740.6 92.2L851.6 114.1L782.6 92.1Z" fill="#f58d6a" stroke="#f58d6a"></path><path d="M789.6 92.2L851.6 114.1L840.5 0Z" fill="#feae62" stroke="#feae62"></path><path d="M851.6 114.1L888.6 92.2L840.5 0Z" fill="#feae62" stroke="#feae62"></path><path d="M676.6 0L603.7 90.1L740.6 92.2Z" fill="#feae62" stroke="#feae62"></path><path d="M740.6 92.2L601.7 121.1L851.6 114.1Z" fill="#fea863" stroke="#fea863"></path><path d="M954.5 92.2L961.5 6.1L920.5 0Z" fill="#feae62" stroke="#feae62"></path><path d="M920.5 0L1052.5 -31.9L741.6 -42.9Z" fill="#f2886b" stroke="#f2886b"></path><path d="M547.7 0L584.7 92.2L603.7 90.1Z" fill="#fca264" stroke="#fca264"></path><path d="M603.7 90.1L601.7 121.1L740.6 92.2Z" fill="#fca264" stroke="#fca264"></path><path d="M741.6 -42.9L547.7 0L676.6 0Z" fill="#fb9d65" stroke="#fb9d65"></path><path d="M676.6 0L547.7 0L603.7 90.1Z" fill="#fb9d65" stroke="#fb9d65"></path><path d="M584.7 92.2L601.7 121.1L603.7 90.1Z" fill="#fea863" stroke="#fea863"></path><path d="M851.6 114.1L954.5 92.2L888.6 92.2Z" fill="#ffb961" stroke="#ffb961"></path><path d="M888.6 92.2L954.5 92.2L920.5 0Z" fill="#fca264" stroke="#fca264"></path><path d="M547.7 0L524.8 53.1L584.7 92.2Z" fill="#fea863" stroke="#fea863"></path><path d="M584.7 92.2L528.7 92.2L601.7 121.1Z" fill="#f2886b" stroke="#f2886b"></path><path d="M524.8 53.1L528.7 92.2L584.7 92.2Z" fill="#f2886b" stroke="#f2886b"></path><path d="M1004.5 92.2L1016.4 0L961.5 6.1Z" fill="#f58d6a" stroke="#f58d6a"></path><path d="M961.5 6.1L1052.5 -31.9L920.5 0Z" fill="#f2886b" stroke="#f2886b"></path><path d="M1096.4 127.1L1004.5 92.2L954.5 92.2Z" fill="#fb9d65" stroke="#fb9d65"></path><path d="M954.5 92.2L1004.5 92.2L961.5 6.1Z" fill="#f79268" stroke="#f79268"></path><path d="M1066.4 -21.9L1052.5 -31.9L1016.4 0Z" fill="#f99866" stroke="#f99866"></path><path d="M1016.4 0L1052.5 -31.9L961.5 6.1Z" fill="#feae62" stroke="#feae62"></path><path d="M462.8 92.2L472.8 92.2L437.7 0Z" fill="#ef836d" stroke="#ef836d"></path><path d="M524.8 53.1L472.8 92.2L528.7 92.2Z" fill="#fca264" stroke="#fca264"></path><path d="M528.7 92.2L472.8 92.2L601.7 121.1Z" fill="#f79268" stroke="#f79268"></path><path d="M1127.4 92.2L1066.4 -21.9L1016.4 0Z" fill="#fea863" stroke="#fea863"></path><path d="M437.7 0L472.8 92.2L524.8 53.1Z" fill="#fca264" stroke="#fca264"></path><path d="M472.8 92.2L462.8 92.2L601.7 121.1Z" fill="#ffb361" stroke="#ffb361"></path><path d="M741.6 -42.9L437.7 0L547.7 0Z" fill="#f79268" stroke="#f79268"></path><path d="M547.7 0L437.7 0L524.8 53.1Z" fill="#f79268" stroke="#f79268"></path><path d="M851.6 114.1L1096.4 127.1L954.5 92.2Z" fill="#fb9d65" stroke="#fb9d65"></path><path d="M1004.5 92.2L1127.4 92.2L1016.4 0Z" fill="#f2886b" stroke="#f2886b"></path><path d="M601.7 121.1L1096.4 127.1L851.6 114.1Z" fill="#fb9d65" stroke="#fb9d65"></path><path d="M1127.4 92.2L1136.4 0L1066.4 -21.9Z" fill="#ffb361" stroke="#ffb361"></path><path d="M1066.4 -21.9L1136.4 0L1052.5 -31.9Z" fill="#f58d6a" stroke="#f58d6a"></path><path d="M741.6 -42.9L371.8 0L437.7 0Z" fill="#ef836d" stroke="#ef836d"></path><path d="M437.7 0L371.8 0L462.8 92.2Z" fill="#ef836d" stroke="#ef836d"></path><path d="M1096.4 127.1L1127.4 92.2L1004.5 92.2Z" fill="#f58d6a" stroke="#f58d6a"></path><path d="M1096.4 127.1L1131.4 92.2L1127.4 92.2Z" fill="#fea863" stroke="#fea863"></path><path d="M1127.4 92.2L1131.4 92.2L1136.4 0Z" fill="#ffb361" stroke="#ffb361"></path><path d="M1188.4 46.1L1174.4 0L1136.4 0Z" fill="#f99866" stroke="#f99866"></path><path d="M1136.4 0L1174.4 0L1052.5 -31.9Z" fill="#f58d6a" stroke="#f58d6a"></path><path d="M74.9 -23.9L338.8 0L371.8 0Z" fill="#fb9d65" stroke="#fb9d65"></path><path d="M371.8 0L335.8 92.2L462.8 92.2Z" fill="#fca264" stroke="#fca264"></path><path d="M1236.4 92.2L1188.4 46.1L1131.4 92.2Z" fill="#ffb961" stroke="#ffb961"></path><path d="M1131.4 92.2L1188.4 46.1L1136.4 0Z" fill="#ffb361" stroke="#ffb361"></path><path d="M324.8 46.1L335.8 92.2L371.8 0Z" fill="#f2886b" stroke="#f2886b"></path><path d="M462.8 92.2L335.8 92.2L601.7 121.1Z" fill="#ffb361" stroke="#ffb361"></path><path d="M338.8 0L324.8 46.1L371.8 0Z" fill="#f99866" stroke="#f99866"></path><path d="M338.8 0L294.8 5.1L324.8 46.1Z" fill="#f2886b" stroke="#f2886b"></path><path d="M324.8 46.1L291.9 72.1L335.8 92.2Z" fill="#f58d6a" stroke="#f58d6a"></path><path d="M1188.4 46.1L1229.3 0L1174.4 0Z" fill="#f2886b" stroke="#f2886b"></path><path d="M1174.4 0L1229.3 0L1052.5 -31.9Z" fill="#ef836d" stroke="#ef836d"></path><path d="M294.8 5.1L291.9 72.1L324.8 46.1Z" fill="#ffb961" stroke="#ffb961"></path><path d="M1096.4 127.1L1236.4 92.2L1131.4 92.2Z" fill="#fea863" stroke="#fea863"></path><path d="M1188.4 46.1L1236.4 92.2L1229.3 0Z" fill="#f2886b" stroke="#f2886b"></path><path d="M338.8 0L232.8 0L294.8 5.1Z" fill="#ffb961" stroke="#ffb961"></path><path d="M294.8 5.1L232.8 0L291.9 72.1Z" fill="#f99866" stroke="#f99866"></path><path d="M74.9 -23.9L232.8 0L338.8 0Z" fill="#f99866" stroke="#f99866"></path><path d="M232.8 0L221.9 92.2L291.9 72.1Z" fill="#f2886b" stroke="#f2886b"></path><path d="M291.9 72.1L221.9 92.2L335.8 92.2Z" fill="#ffb361" stroke="#ffb361"></path><path d="M335.8 92.2L221.9 92.2L601.7 121.1Z" fill="#ffb961" stroke="#ffb961"></path><path d="M74.9 -23.9L167.9 0L232.8 0Z" fill="#f99866" stroke="#f99866"></path><path d="M232.8 0L167.9 0L221.9 92.2Z" fill="#ef836d" stroke="#ef836d"></path><path d="M167.9 0L173.9 92.2L221.9 92.2Z" fill="#feae62" stroke="#feae62"></path><path d="M221.9 92.2L0 103.1L601.7 121.1Z" fill="#fea863" stroke="#fea863"></path><path d="M74.9 -23.9L161.9 0L167.9 0Z" fill="#f79268" stroke="#f79268"></path><path d="M167.9 0L161.9 0L173.9 92.2Z" fill="#fb9d65" stroke="#fb9d65"></path><path d="M1096.4 127.1L1346.3 92.2L1236.4 92.2Z" fill="#feae62" stroke="#feae62"></path><path d="M1236.4 92.2L1346.3 92.2L1229.3 0Z" fill="#f2886b" stroke="#f2886b"></path><path d="M1346.3 92.2L1360.2 -17.9L1229.3 0Z" fill="#feae62" stroke="#feae62"></path><path d="M1229.3 0L1360.2 -17.9L1052.5 -31.9Z" fill="#f99866" stroke="#f99866"></path><path d="M1346.3 92.2L1376.3 0L1360.2 -17.9Z" fill="#f58d6a" stroke="#f58d6a"></path><path d="M1346.3 92.2L1378.3 73.1L1376.3 0Z" fill="#fb9d65" stroke="#fb9d65"></path><path d="M1447.3 108.1L1381.3 92.2L1346.3 92.2Z" fill="#f58d6a" stroke="#f58d6a"></path><path d="M1346.3 92.2L1381.3 92.2L1378.3 73.1Z" fill="#fca264" stroke="#fca264"></path><path d="M1378.3 73.1L1428.2 0L1376.3 0Z" fill="#f79268" stroke="#f79268"></path><path d="M1466.2 92.2L1428.2 0L1378.3 73.1Z" fill="#feae62" stroke="#feae62"></path><path d="M1376.3 0L1428.2 0L1360.2 -17.9Z" fill="#f58d6a" stroke="#f58d6a"></path><path d="M161.9 0L87 92.2L173.9 92.2Z" fill="#ffb361" stroke="#ffb361"></path><path d="M173.9 92.2L0 103.1L221.9 92.2Z" fill="#feae62" stroke="#feae62"></path><path d="M741.6 -42.9L74.9 -23.9L371.8 0Z" fill="#f99866" stroke="#f99866"></path><path d="M161.9 0L74.9 -23.9L87 92.2Z" fill="#feae62" stroke="#feae62"></path><path d="M1096.4 127.1L1447.3 108.1L1346.3 92.2Z" fill="#fb9d65" stroke="#fb9d65"></path><path d="M1381.3 92.2L1447.3 108.1L1378.3 73.1Z" fill="#fca264" stroke="#fca264"></path><path d="M1447.3 108.1L1466.2 92.2L1378.3 73.1Z" fill="#f79268" stroke="#f79268"></path><path d="M74.9 -23.9L38 0L87 92.2Z" fill="#f58d6a" stroke="#f58d6a"></path><path d="M74.9 -23.9L0 0L38 0Z" fill="#f79268" stroke="#f79268"></path><path d="M38 0L0 92.2L87 92.2Z" fill="#f99866" stroke="#f99866"></path><path d="M1519.2 20.1L1519.2 0L1428.2 0Z" fill="#fb9d65" stroke="#fb9d65"></path><path d="M1428.2 0L1519.2 0L1360.2 -17.9Z" fill="#feae62" stroke="#feae62"></path><path d="M1466.2 92.2L1519.2 20.1L1428.2 0Z" fill="#fca264" stroke="#fca264"></path><path d="M-21 29.1L0 92.2L38 0Z" fill="#ffb361" stroke="#ffb361"></path><path d="M87 92.2L0 103.1L173.9 92.2Z" fill="#f2886b" stroke="#f2886b"></path><path d="M0 92.2L0 103.1L87 92.2Z" fill="#f58d6a" stroke="#f58d6a"></path><path d="M1447.3 108.1L1519.2 92.2L1466.2 92.2Z" fill="#feae62" stroke="#feae62"></path><path d="M1466.2 92.2L1519.2 92.2L1519.2 20.1Z" fill="#feae62" stroke="#feae62"></path><path d="M0 0L-21 29.1L38 0Z" fill="#f58d6a" stroke="#f58d6a"></path><path d="M0 92.2L-21 29.1L0 103.1Z" fill="#ffb961" stroke="#ffb961"></path></g></svg>